<svg width="25" height="22" viewBox="0 0 25 22" fill="none" xmlns="http://www.w3.org/2000/svg">
<path d="M21.4215 7.25731C21.143 4.58692 19.3885 2.2192 16.7491 0.951087C14.1096 -0.317029 10.9358 -0.317029 8.29662 0.951087C5.65729 2.21941 3.90285 4.58713 3.62422 7.25731C2.23739 7.52107 1.06578 8.3456 0.451622 9.48963C-0.16254 10.6337 -0.149731 11.9679 0.486558 13.1023C1.12259 14.2366 2.31018 15.043 3.70179 15.2853C4.04597 17.1585 5.12151 18.8615 6.73695 20.091C8.35233 21.3206 10.4027 21.997 12.5231 22H13.8155C14.6443 22 15.439 21.7052 16.025 21.1805C16.611 20.656 16.9401 19.9445 16.9401 19.2025C16.9401 18.4605 16.611 17.7489 16.025 17.2242C15.439 16.6996 14.6443 16.4049 13.8155 16.4049C12.987 16.4049 12.1922 16.6996 11.6062 17.2242C11.0202 17.7489 10.6909 18.4605 10.6909 19.2025V20.0472C9.30704 19.7078 8.07231 18.9973 7.15274 18.0109C6.23311 17.0247 5.67284 15.81 5.54705 14.5302C5.64081 9.92456 5.64713 8.45491 5.52451 7.87631H5.52429C5.55269 5.63775 6.91267 3.58263 9.09225 2.485C11.2718 1.38762 13.9398 1.41464 16.0913 2.55603C18.2427 3.69722 19.5504 5.7794 19.5222 8.01812V8.06736C19.3834 14.7213 19.4415 14.7848 19.797 15.1118H19.7967C19.982 15.2777 20.2329 15.3713 20.4948 15.3721C22.0029 15.3506 23.4024 14.6652 24.2363 13.54C25.0705 12.4148 25.2319 10.9939 24.6682 9.74133C24.1047 8.48876 22.888 7.56491 21.4158 7.27169L21.4215 7.25731Z" fill="white"/>
</svg>
