<svg width="24" height="24" viewBox="0 0 24 24" fill="none" xmlns="http://www.w3.org/2000/svg">
<path d="M12.678 19.957C12.9528 20.021 12.9779 20.3808 12.7103 20.47L11.1303 20.99C7.16034 22.27 5.07034 21.2 3.78034 17.23L2.50034 13.28C1.22034 9.31001 2.28034 7.21001 6.25034 5.93001L6.77434 5.75648C7.1772 5.62306 7.56927 6.02712 7.45487 6.43579C7.39817 6.63837 7.34362 6.84977 7.29034 7.07001L6.31034 11.26C5.21034 15.97 6.82034 18.57 11.5303 19.69L12.678 19.957Z" fill="white"/>
<path d="M17.1703 3.21001L15.5003 2.82001C12.1603 2.03001 10.1703 2.68001 9.00034 5.10001C8.70034 5.71001 8.46034 6.45001 8.26034 7.30001L7.28034 11.49C6.30034 15.67 7.59034 17.73 11.7603 18.72L13.4403 19.12C14.0203 19.26 14.5603 19.35 15.0603 19.39C18.1803 19.69 19.8403 18.23 20.6803 14.62L21.6603 10.44C22.6403 6.26001 21.3603 4.19001 17.1703 3.21001ZM15.2903 13.33C15.2003 13.67 14.9003 13.89 14.5603 13.89C14.5003 13.89 14.4403 13.88 14.3703 13.87L11.4603 13.13C11.0603 13.03 10.8203 12.62 10.9203 12.22C11.0203 11.82 11.4303 11.58 11.8303 11.68L14.7403 12.42C15.1503 12.52 15.3903 12.93 15.2903 13.33ZM18.2203 9.95001C18.1303 10.29 17.8303 10.51 17.4903 10.51C17.4303 10.51 17.3703 10.5 17.3003 10.49L12.4503 9.26001C12.0503 9.16001 11.8103 8.75001 11.9103 8.35001C12.0103 7.95001 12.4203 7.71001 12.8203 7.81001L17.6703 9.04001C18.0803 9.13001 18.3203 9.54001 18.2203 9.95001Z" fill="white"/>
</svg>
