<svg width="44" height="44" viewBox="0 0 44 44" fill="none" xmlns="http://www.w3.org/2000/svg">
<g clip-path="url(#clip0_160_1483)">
<rect width="44" height="44" rx="12" fill="#8BCFF9"/>
<path d="M22.8877 32.4691C23.2449 32.5532 23.2777 33.0267 22.9297 33.144L20.8754 33.8282C15.7136 35.5124 12.9962 34.1046 11.3189 28.8809L9.65465 23.6836C7.99039 18.46 9.3686 15.6969 14.5304 14.0127L15.2117 13.7843C15.7355 13.6088 16.2453 14.1404 16.0966 14.6782C16.0228 14.9447 15.9519 15.2229 15.8826 15.5126L14.6084 21.0257C13.1782 27.223 15.2715 30.6441 21.3955 32.1177L22.8877 32.4691Z" fill="white"/>
<path d="M28.7286 10.4337L26.5573 9.9206C22.2146 8.88113 19.6272 9.73639 18.106 12.9206C17.7159 13.7232 17.4039 14.6969 17.1438 15.8153L15.8696 21.3284C14.5954 26.8283 16.2727 29.5388 21.6945 30.8414L23.8789 31.3677C24.633 31.5519 25.3351 31.6704 25.9852 31.723C30.0419 32.1177 32.2002 30.1967 33.2924 25.4468L34.5666 19.9468C35.8408 14.4469 34.1765 11.7232 28.7286 10.4337ZM26.2843 23.7494C26.1672 24.1968 25.7772 24.4862 25.3351 24.4862C25.2571 24.4862 25.1791 24.4731 25.0881 24.4599L21.3045 23.4862C20.7844 23.3547 20.4723 22.8152 20.6024 22.2889C20.7324 21.7626 21.2655 21.4468 21.7856 21.5784L25.5691 22.552C26.1022 22.6836 26.4143 23.2231 26.2843 23.7494ZM30.0939 19.3021C29.9768 19.7494 29.5868 20.0389 29.1447 20.0389C29.0667 20.0389 28.9887 20.0258 28.8977 20.0126L22.5917 18.3942C22.0716 18.2626 21.7596 17.7231 21.8896 17.1968C22.0196 16.6705 22.5527 16.3547 23.0728 16.4863L29.3787 18.1047C29.9118 18.2231 30.2239 18.7626 30.0939 19.3021Z" fill="white"/>
</g>
<defs>
<clipPath id="clip0_160_1483">
<rect width="44" height="44" rx="12" fill="white"/>
</clipPath>
</defs>
</svg>
