<svg width="44" height="44" viewBox="0 0 44 44" fill="none" xmlns="http://www.w3.org/2000/svg">
<g clip-path="url(#clip0_160_1450)">
<rect width="44" height="44" rx="12" fill="#91B4C9"/>
<g clip-path="url(#clip1_160_1450)">
<path d="M29.425 29.425C27.2882 31.0538 24.6864 31.9561 22 32C13.25 32 8.25 22 8.25 22C9.80486 19.1024 11.9614 16.5708 14.575 14.575M19.375 12.3C20.2354 12.0986 21.1163 11.9979 22 12C30.75 12 35.75 22 35.75 22C34.9912 23.4195 34.0863 24.7559 33.05 25.9875M24.65 24.65C24.3067 25.0184 23.8927 25.3139 23.4327 25.5189C22.9727 25.7239 22.4761 25.8341 21.9726 25.843C21.4691 25.8518 20.969 25.7592 20.502 25.5706C20.0351 25.382 19.6109 25.1013 19.2548 24.7452C18.8987 24.3891 18.618 23.9649 18.4294 23.498C18.2408 23.031 18.1482 22.5309 18.157 22.0274C18.1659 21.5239 18.2761 21.0273 18.4811 20.5673C18.6861 20.1073 18.9816 19.6933 19.35 19.35M8.25 8.25L35.75 35.75" stroke="#FFFEFE" stroke-width="3.5" stroke-linecap="round" stroke-linejoin="round"/>
</g>
</g>
<defs>
<clipPath id="clip0_160_1450">
<rect width="44" height="44" rx="12" fill="white"/>
</clipPath>
<clipPath id="clip1_160_1450">
<rect width="30" height="30" fill="white" transform="translate(7 7)"/>
</clipPath>
</defs>
</svg>
