<svg width="44" height="44" viewBox="0 0 44 44" fill="none" xmlns="http://www.w3.org/2000/svg">
<g clip-path="url(#clip0_160_1070)">
<rect width="44" height="44" rx="12" fill="#353945"/>
<path d="M30 31V29C30 27.9391 29.5786 26.9217 28.8284 26.1716C28.0783 25.4214 27.0609 25 26 25H18C16.9391 25 15.9217 25.4214 15.1716 26.1716C14.4214 26.9217 14 27.9391 14 29V31M26 17C26 19.2091 24.2091 21 22 21C19.7909 21 18 19.2091 18 17C18 14.7909 19.7909 13 22 13C24.2091 13 26 14.7909 26 17Z" stroke="#D3EEFF" stroke-width="2" stroke-linecap="round" stroke-linejoin="round"/>
</g>
<defs>
<clipPath id="clip0_160_1070">
<rect width="44" height="44" rx="12" fill="white"/>
</clipPath>
</defs>
</svg>
